<svg width="20" height="20" viewBox="0 0 20 20" fill="none" xmlns="http://www.w3.org/2000/svg">
<path d="M16 20H4C1.78947 20 0 18.2105 0 16V4C0 1.78947 1.78947 0 4 0H16C18.2105 0 20 1.78947 20 4V16C20 18.2105 18.2105 20 16 20Z" fill="black"/>
<path d="M13.421 5.21045C12.6841 5.21045 12.1052 5.7894 12.1052 6.52624C12.1052 6.73677 12.1578 6.94729 12.2631 7.15782L7.10519 12.3157C6.94729 12.2104 6.73676 12.1578 6.52624 12.1578C5.7894 12.1578 5.21045 12.7368 5.21045 13.4736C5.21045 14.2105 5.7894 14.7894 6.52624 14.7894C7.26308 14.7894 7.84203 14.2105 7.84203 13.4736C7.84203 13.2631 7.7894 13.0526 7.68413 12.842L12.842 7.68413C12.9999 7.7894 13.2104 7.84203 13.421 7.84203C14.1578 7.84203 14.7368 7.26308 14.7368 6.52624C14.7368 5.7894 14.1578 5.21045 13.421 5.21045Z" fill="#F4F0E7"/>
</svg>
